<svg width="32" height="32" viewBox="0 0 32 32" fill="none" xmlns="http://www.w3.org/2000/svg">
<path d="M13 2V6L11 7L8 4L4 8L7 11L6 13H2V19H6L7 21L4 24L8 28L11 25L13 26V30H19V26L21 25L24 28L28 24L25 21L26 19H30V13H26L25 11L28 8L24 4L21 7L19 6V2H13Z" stroke="black" stroke-width="2" stroke-linecap="round" stroke-linejoin="round"/>
<path d="M16 20C18.2091 20 20 18.2091 20 16C20 13.7909 18.2091 12 16 12C13.7909 12 12 13.7909 12 16C12 18.2091 13.7909 20 16 20Z" stroke="black" stroke-width="2" stroke-linecap="round" stroke-linejoin="round"/>
</svg>
